<svg width="129" height="133" viewBox="0 0 129 133" fill="none" xmlns="http://www.w3.org/2000/svg">
<path d="M125.986 73.5615H96.2303C96.4874 73.1516 96.735 72.7344 96.9633 72.3039C100.846 64.991 99.6909 56.3169 94.7262 50.2862L84.5393 32.3143C78.8361 21.7515 69.0307 20.787 59.5475 19.8541C58.1879 19.7204 56.7818 19.5822 55.399 19.4172C45.8087 18.2709 43.9371 17.2438 36.9728 13.4226C36.1501 12.9711 35.2589 12.4823 34.2819 11.9531C34.4217 11.0037 34.3492 10.0259 34.058 9.07855C33.5444 7.40773 32.4152 6.04111 30.8883 5.23557L22.4989 0.765007C20.9614 -0.0519556 19.1947 -0.221323 17.5252 0.289376C15.8533 0.800335 14.4831 1.92954 13.6674 3.46735L0.765377 27.756C-0.0518452 29.2914 -0.221212 31.0568 0.288967 32.7273C0.799407 34.3989 1.92757 35.7697 3.46564 36.5867L11.8522 41.056C12.8253 41.5729 13.8711 41.8178 14.9034 41.8178C17.2423 41.8176 19.5093 40.559 20.6837 38.3534L20.8084 38.1185C23.4556 39.7608 25.0062 41.3131 26.4185 43.6079C30.5709 50.3436 34.6302 52.3056 38.5561 54.2027C39.9214 54.8625 41.2111 55.4859 42.557 56.3255L59.5971 66.9517C59.7228 67.0299 59.8506 67.1079 59.9792 67.1853C60.4733 69.4603 61.3544 71.6158 62.5766 73.5612H35.5742C34.1395 73.5612 32.9766 74.7242 32.9766 76.1589V124.814C32.9766 129.328 36.6465 133 41.1579 133H120.403C124.914 133 128.584 129.328 128.584 124.814V76.1591C128.584 74.7244 127.421 73.5615 125.986 73.5615V73.5615ZM92.3751 69.8679C91.6423 71.248 90.7056 72.4855 89.5891 73.5615H69.2245C67.8462 72.2372 66.7448 70.6617 65.9767 68.9244C66.1858 68.8937 66.3952 68.8532 66.6048 68.7969C68.1891 68.3706 69.4656 67.2642 70.3987 65.5087C72.1505 62.2123 71.4476 56.8624 69.0214 52.5631C73.5327 48.032 80.5264 46.9061 86.3041 49.9781C93.4511 53.7894 96.1744 62.7116 92.3751 69.8679V69.8679ZM65.8047 48.4473L57.208 39.5207C57.1836 39.4911 57.1608 39.4625 57.1395 39.4355C57.4416 39.3186 57.9071 39.1804 58.6022 39.0636C65.4182 37.9237 67.3781 39.8416 70.5519 45.1345C68.8396 45.9873 67.2386 47.0971 65.8047 48.4473ZM16.0965 35.9142C15.7559 36.554 14.9283 36.808 14.2922 36.4698L5.90562 32.0005C5.90458 32 5.90354 31.9995 5.9025 31.999C5.48246 31.7758 5.31803 31.409 5.2575 31.2103C5.19672 31.0116 5.12814 30.616 5.35232 30.1954L18.2564 5.90317C18.4793 5.48287 18.8453 5.31844 19.0435 5.25791C19.1386 5.22908 19.2786 5.19817 19.4446 5.19817C19.6264 5.19817 19.8394 5.23505 20.0587 5.35143L28.4551 9.82589C28.8684 10.0438 29.0318 10.4075 29.0923 10.6047C29.1539 10.8047 29.2235 11.2032 28.9985 11.6258L16.0965 35.9142ZM62.3436 62.5422L45.3061 51.9175C43.7236 50.9302 42.2455 50.2161 40.8166 49.5254C37.1183 47.7379 34.1972 46.3263 30.8418 40.8835C28.7445 37.4756 26.312 35.3731 23.2517 33.5191L32.1752 16.7206C32.9992 17.1682 33.7631 17.5872 34.4744 17.9773C41.5468 21.858 44.1933 23.3101 54.7839 24.5759C56.2207 24.7471 57.6538 24.8881 59.0396 25.0245C68.2863 25.934 75.5903 26.6525 79.9793 34.8029C79.9884 34.8195 79.9973 34.8359 80.0066 34.8522L85.1396 43.9079C81.9902 42.9546 78.7099 42.8146 75.5794 43.4281C71.7902 36.9867 68.2847 32.1766 57.7439 33.9399C54.5839 34.4704 52.6245 35.7167 51.9202 37.6447C51.4921 38.8173 51.3831 40.6879 53.2957 42.9398C53.3308 42.9811 53.3669 43.0211 53.4045 43.06L62.8372 52.8548C65.8284 55.9548 66.7768 61.2543 65.8115 63.0706C65.5281 63.6039 65.3093 63.7654 65.2553 63.78C65.1473 63.8088 64.5023 63.8852 62.3436 62.5422V62.5422ZM120.403 127.805H41.1579C39.5115 127.805 38.1719 126.463 38.1719 124.814V94.1526H52.2221C53.6568 94.1526 54.8197 92.9896 54.8197 91.5549C54.8197 90.1202 53.6568 88.9573 52.2221 88.9573H38.1719V78.7565H123.389V88.9573H75.5275C74.0928 88.9573 72.9298 90.1202 72.9298 91.5549C72.9298 92.9896 74.0928 94.1526 75.5275 94.1526H123.389V124.814C123.389 126.463 122.049 127.805 120.403 127.805Z" fill="#294F6B"/>
<path d="M105.579 101.755H55.9805C54.5458 101.755 53.3828 102.918 53.3828 104.353V117.599C53.3828 119.034 54.5458 120.197 55.9805 120.197H105.579C107.014 120.197 108.177 119.034 108.177 117.599V104.353C108.177 102.918 107.014 101.755 105.579 101.755V101.755ZM102.982 115.001H58.5781V106.95H102.982V115.001Z" fill="#294F6B"/>
<path d="M63.8747 94.1528H63.8895C65.3242 94.1528 66.4799 92.9899 66.4799 91.5552C66.4799 90.1205 65.3097 88.9575 63.875 88.9575C62.4403 88.9575 61.2773 90.1205 61.2773 91.5552C61.2773 92.9899 62.4401 94.1528 63.8747 94.1528Z" fill="#294F6B"/>
</svg>
