<svg width="29" height="29" viewBox="0 0 29 29" fill="none" xmlns="http://www.w3.org/2000/svg">
<circle cx="14.5" cy="14.5" r="14.5" fill="#FF9F41"/>
<g clip-path="url(#clip0)">
<path d="M23.5625 14.5C23.5625 9.49492 19.5051 5.4375 14.5 5.4375C9.49492 5.4375 5.4375 9.49492 5.4375 14.5C5.4375 19.0233 8.75151 22.7725 13.084 23.4524V17.1196H10.783V14.5H13.084V12.5034C13.084 10.2321 14.437 8.97754 16.507 8.97754C17.4982 8.97754 18.5356 9.15454 18.5356 9.15454V11.3848H17.3929C16.2672 11.3848 15.916 12.0834 15.916 12.8008V14.5H18.4294L18.0276 17.1196H15.916V23.4524C20.2485 22.7725 23.5625 19.0233 23.5625 14.5Z" fill="white"/>
</g>
<defs>
<clipPath id="clip0">
<rect width="18.125" height="18.125" fill="white" transform="translate(5.4375 5.4375)"/>
</clipPath>
</defs>
</svg>
