<svg width="123" height="133" viewBox="0 0 123 133" fill="none" xmlns="http://www.w3.org/2000/svg">
<path d="M49.1423 3.94057C45.3739 0.89326 40.4381 0.868582 37.4422 3.96707C33.8897 7.64924 33.8889 13.647 37.4407 17.3375C37.4521 17.3494 37.4638 17.3614 37.4758 17.3731L47.0497 26.8589C47.0998 26.9088 47.1528 26.9558 47.2081 26.9997L47.2661 27.0459C47.7316 27.4169 48.2591 27.8375 49.0618 27.871C49.0888 27.872 49.1159 27.8725 49.1429 27.8725C49.1688 27.8725 49.1948 27.872 49.2208 27.871C50.0326 27.8385 50.5622 27.4164 51.0295 27.0436L51.0849 26.9997C51.1402 26.9555 51.1932 26.9083 51.2436 26.8584L59.6613 18.5067L60.8097 17.3731C60.8209 17.3619 60.8321 17.3507 60.843 17.3393C64.4044 13.648 64.4038 7.64847 60.8435 3.96759C57.851 0.864167 52.9121 0.889104 49.1423 3.94057V3.94057ZM58.0541 14.6177L49.1457 23.4505L41.3613 15.7337L40.2319 14.6188C38.1322 12.4188 38.1366 8.85923 40.2449 6.67408C42.103 4.75182 45.1183 5.53293 47.0156 7.24739C47.1546 7.37233 47.2668 7.47832 47.3591 7.5656C47.7456 7.93083 48.275 8.4314 49.1426 8.4314C50.018 8.4314 50.5417 7.93317 50.9238 7.56924C51.0158 7.48196 51.1283 7.37441 51.2732 7.24427C53.169 5.53163 56.1843 4.74948 58.0406 6.67486C60.1549 8.86027 60.159 12.4191 58.0541 14.6177Z" fill="#294F6B"/>
<path d="M49.5069 59.035C46.9051 58.037 43.977 58.4521 41.4737 60.1733C41.0676 60.4525 40.6822 60.7583 40.3195 61.0879V37.084C40.3195 33.4039 37.3255 30.4099 33.6454 30.4099C32.6546 30.4099 31.7132 30.627 30.8669 31.0159C30.8147 27.3763 27.8412 24.4321 24.1935 24.4321C21.3507 24.4321 18.9169 26.2211 17.9571 28.7336C17.003 28.2068 15.9067 27.9068 14.742 27.9068C11.0577 27.9068 8.06053 30.9008 8.06053 34.5809V39.877C7.43865 39.6526 6.76871 39.5305 6.07046 39.5305C2.78001 39.5305 0 42.2297 0 45.4248L0.00727341 79.8438C0.0410429 85.1316 1.67419 88.0911 3.35253 89.9055C2.26048 90.4219 1.50145 91.5311 1.50145 92.817V107.812C1.50145 108.888 2.37374 109.76 3.44969 109.76C4.52564 109.76 5.39793 108.888 5.39793 107.812V93.4919H42.3337V129.067H5.39793V117.544C5.39793 116.468 4.52564 115.596 3.44969 115.596C2.37374 115.596 1.50145 116.468 1.50145 117.544V129.742C1.50145 131.518 2.94652 132.964 4.72306 132.964H43.0159C44.7883 132.964 46.2302 131.518 46.2302 129.742V92.817C46.2302 91.5571 45.5034 90.4669 44.4493 89.9375C45.7873 87.7274 46.6739 85.4259 47.0914 83.063C48.2873 76.2811 49.9805 71.8274 51.2167 68.5757C52.1163 66.2092 52.7106 64.6457 52.7207 63.2034C52.734 61.2622 51.6531 59.86 49.5069 59.035V59.035ZM47.5748 67.1908C46.3562 70.3966 44.5145 75.241 43.2544 82.3856C42.8172 84.8593 41.7158 87.2806 39.9808 89.5951H9.07621C8.75722 89.3107 8.40212 89.054 8.03663 88.7901C6.30867 87.5432 3.9422 85.8355 3.90376 79.831L3.89648 45.4246C3.89648 44.3793 4.93269 43.4272 6.07046 43.4272C7.16771 43.4272 8.06053 44.3232 8.06053 45.4246V56.1721C8.06053 57.2481 8.93282 58.1204 10.0088 58.1204C11.0847 58.1204 11.957 57.2481 11.957 56.1721V34.5812C11.957 33.0496 13.2062 31.8035 14.742 31.8035C16.2735 31.8035 17.5196 33.0496 17.5196 34.5812V56.5547C17.5196 57.6307 18.3919 58.503 19.4679 58.503C20.5438 58.503 21.4161 57.6307 21.4161 56.5547V31.1138C21.4161 29.5781 22.6622 28.3286 24.1938 28.3286C25.7254 28.3286 26.9715 29.5781 26.9715 31.1138V54.913C26.9715 55.989 27.8438 56.8613 28.9197 56.8613C29.9957 56.8613 30.8679 55.989 30.8679 54.913V37.0838C30.8679 35.5522 32.114 34.3061 33.6456 34.3061C35.1772 34.3061 36.4233 35.5522 36.4233 37.0838V69.0929C32.2185 71.3713 28.443 75.2228 27.5578 78.2545C27.2562 79.2874 27.849 80.369 28.8818 80.6706C29.0641 80.7239 29.2478 80.7493 29.4286 80.7493C30.272 80.7493 31.0495 80.1973 31.2979 79.3466C31.7979 77.6342 34.8969 74.0533 39.1924 72.0576C39.8701 71.7427 40.3198 71.0382 40.3198 70.2906C40.3198 67.4127 41.5765 64.8306 43.6814 63.3835C45.1117 62.4003 46.7264 62.141 48.1107 62.672C48.6141 62.8655 48.7803 63.012 48.8183 63.0504C48.9505 63.5718 48.22 65.4935 47.5748 67.1908V67.1908Z" fill="#294F6B"/>
<path d="M119.105 92.8836C117.805 91.5388 116.219 90.6514 114.499 90.2101V74.634C114.499 73.2427 113.658 72.0455 112.46 71.5234C113.976 69.0657 114.975 66.5083 115.434 63.8868C116.747 56.4562 118.602 51.5759 119.957 48.0127C120.934 45.4421 121.58 43.7435 121.591 42.1992C121.606 40.159 120.464 38.683 118.195 37.8117C115.41 36.7428 112.271 37.1893 109.584 39.0363C109.031 39.4163 108.514 39.8426 108.036 40.3086V13.6455C108.036 9.72173 104.844 6.52947 100.92 6.52947C99.7624 6.52947 98.6686 6.80742 97.7012 7.30019V7.11576C97.7012 3.19226 94.5089 0 90.5854 0C87.4768 0 84.827 1.99968 83.857 4.77891C82.7972 4.15131 81.5614 3.79102 80.2431 3.79102C76.3196 3.79102 73.1274 6.98328 73.1274 10.907V16.9656C72.3992 16.6681 71.6031 16.5042 70.7692 16.5042C67.2673 16.5042 64.3086 19.3684 64.3086 22.7596L64.3234 60.3942C64.3579 66.3117 66.2433 69.5333 68.1196 71.4755C66.8566 71.9681 65.9576 73.1965 65.9576 74.6343V98.6543C65.9576 99.7303 66.8299 100.603 67.9058 100.603C68.9818 100.603 69.8541 99.7303 69.8541 98.6543V75.1398H73.1079C73.1092 75.1398 73.1105 75.1401 73.112 75.1401C73.1133 75.1401 73.1146 75.1398 73.1159 75.1398H110.603V89.9563C108.075 90.2418 105.499 91.3692 103.269 93.3281C98.2392 88.9131 91.4642 88.7115 87.4397 92.8841C82.7416 97.7482 82.741 105.669 87.4386 110.541C87.449 110.552 87.4594 110.562 87.4698 110.573L100.882 123.867C100.931 123.916 100.984 123.963 101.039 124.007L101.142 124.089C101.752 124.577 102.328 125.038 103.212 125.064C103.231 125.064 103.25 125.064 103.269 125.064C103.287 125.064 103.306 125.064 103.324 125.064C104.211 125.038 104.799 124.567 105.368 124.111L105.499 124.007C105.554 123.963 105.606 123.916 105.656 123.867L110.603 118.963V129.104H69.8538V107.65C69.8538 106.574 68.9815 105.702 67.9056 105.702C66.8296 105.702 65.9573 106.574 65.9573 107.65V129.609C65.9573 131.479 67.4751 133 69.341 133H111.116C112.981 133 114.499 131.479 114.499 129.609V115.101L119.072 110.576C119.084 110.564 119.095 110.553 119.106 110.541C123.804 105.669 123.803 97.748 119.105 92.8836V92.8836ZM107.935 71.2433H73.9812C73.6256 70.9191 73.225 70.6277 72.8105 70.3284C70.8895 68.9418 68.2586 67.0427 68.2196 60.382L68.2048 22.7588C68.2048 21.5247 69.427 20.4007 70.769 20.4007C72.0691 20.4007 73.1271 21.4585 73.1271 22.7588V34.5223C73.1271 35.5983 73.9994 36.4706 75.0754 36.4706C76.1513 36.4706 77.0236 35.5983 77.0236 34.5223V10.907C77.0236 9.1318 78.4679 7.6875 80.2429 7.6875C82.0179 7.6875 83.4621 9.1318 83.4621 10.907V34.9346C83.4621 36.0105 84.3344 36.8828 85.4104 36.8828C86.4863 36.8828 87.3586 36.0105 87.3586 34.9346V7.11602C87.3586 5.34078 88.8061 3.89648 90.5852 3.89648C92.3602 3.89648 93.8045 5.34078 93.8045 7.11602V33.1383C93.8045 34.2142 94.6768 35.0865 95.7527 35.0865C96.8287 35.0865 97.7009 34.2142 97.7009 33.1383V13.6455C97.7009 11.8702 99.1452 10.426 100.92 10.426C102.695 10.426 104.139 11.8702 104.139 13.6455V48.7494C99.5406 51.2097 95.3979 55.4109 94.4347 58.7104C94.1331 59.7432 94.7261 60.8252 95.7589 61.1265C95.9413 61.1797 96.1249 61.2049 96.3057 61.2049C97.1492 61.2049 97.9267 60.6527 98.175 59.8022C98.7314 57.896 102.161 53.9206 106.908 51.7188C107.586 51.4042 108.036 50.6995 108.036 49.9514C108.036 46.744 109.44 43.8638 111.792 42.247C113.404 41.1383 115.23 40.8474 116.799 41.4495C117.697 41.7945 117.696 41.9607 117.695 42.1709C117.688 43.0143 117.082 44.609 116.315 46.6282C114.984 50.1275 112.974 55.4155 111.596 63.2114C111.114 65.9644 109.882 68.6623 107.935 71.2433V71.2433ZM116.318 107.82L103.269 120.747L90.2285 107.821C86.9851 104.44 86.9892 98.9585 90.2431 95.5901C93.1763 92.5485 97.8765 93.7141 100.812 96.3577C101.018 96.5419 101.181 96.698 101.315 96.825C101.779 97.2666 102.353 97.8129 103.256 97.8129H103.281C104.184 97.8129 104.759 97.2664 105.223 96.8248C105.356 96.6978 105.52 96.5416 105.728 96.3551C107.534 94.7292 110.01 93.6647 112.333 93.7951C112.384 93.8008 112.436 93.8032 112.488 93.805C113.882 93.9159 115.214 94.464 116.303 95.5911C119.555 98.9582 119.56 104.439 116.318 107.82V107.82Z" fill="#294F6B"/>
</svg>
