<svg width="29" height="29" viewBox="0 0 29 29" fill="none" xmlns="http://www.w3.org/2000/svg">
<circle cx="14.5" cy="14.5" r="14.5" fill="#FF9F41"/>
<g clip-path="url(#clip0)">
<path d="M14.5 8.18404C16.5582 8.18404 16.8019 8.19307 17.6113 8.22917C18.3636 8.26227 18.7698 8.38865 19.0406 8.49397C19.3987 8.63239 19.6575 8.80089 19.9253 9.0687C20.1961 9.33951 20.3616 9.59528 20.5 9.95335C20.6053 10.2242 20.7317 10.6334 20.7648 11.3826C20.8009 12.1951 20.8099 12.4388 20.8099 14.494C20.8099 16.5522 20.8009 16.7959 20.7648 17.6053C20.7317 18.3576 20.6053 18.7638 20.5 19.0346C20.3616 19.3927 20.1931 19.6515 19.9253 19.9193C19.6545 20.1901 19.3987 20.3556 19.0406 20.494C18.7698 20.5993 18.3606 20.7257 17.6113 20.7588C16.7989 20.7949 16.5552 20.8039 14.5 20.8039C12.4418 20.8039 12.1981 20.7949 11.3887 20.7588C10.6364 20.7257 10.2302 20.5993 9.95937 20.494C9.60129 20.3556 9.34252 20.1871 9.07471 19.9193C8.8039 19.6485 8.6384 19.3927 8.49999 19.0346C8.39467 18.7638 8.26829 18.3546 8.23519 17.6053C8.19908 16.7929 8.19006 16.5492 8.19006 14.494C8.19006 12.4358 8.19908 12.1921 8.23519 11.3826C8.26829 10.6304 8.39467 10.2242 8.49999 9.95335C8.6384 9.59528 8.80691 9.3365 9.07471 9.0687C9.34553 8.79788 9.60129 8.63239 9.95937 8.49397C10.2302 8.38865 10.6394 8.26227 11.3887 8.22917C12.1981 8.19307 12.4418 8.18404 14.5 8.18404ZM14.5 6.79688C12.4087 6.79688 12.1469 6.8059 11.3255 6.84201C10.507 6.87812 9.94432 7.01052 9.45686 7.20009C8.94833 7.39868 8.51804 7.66047 8.09076 8.09076C7.66047 8.51804 7.39868 8.94833 7.20009 9.45385C7.01052 9.94432 6.87812 10.504 6.84201 11.3225C6.8059 12.1469 6.79688 12.4087 6.79688 14.5C6.79688 16.5913 6.8059 16.8531 6.84201 17.6745C6.87812 18.493 7.01052 19.0557 7.20009 19.5431C7.39868 20.0517 7.66047 20.482 8.09076 20.9092C8.51804 21.3365 8.94833 21.6013 9.45385 21.7969C9.94432 21.9865 10.504 22.1189 11.3225 22.155C12.1439 22.1911 12.4057 22.2001 14.497 22.2001C16.5883 22.2001 16.8501 22.1911 17.6715 22.155C18.49 22.1189 19.0527 21.9865 19.5401 21.7969C20.0456 21.6013 20.4759 21.3365 20.9032 20.9092C21.3305 20.482 21.5953 20.0517 21.7909 19.5462C21.9805 19.0557 22.1129 18.496 22.149 17.6775C22.1851 16.8561 22.1941 16.5943 22.1941 14.503C22.1941 12.4117 22.1851 12.1499 22.149 11.3285C22.1129 10.51 21.9805 9.94733 21.7909 9.45987C21.6013 8.94833 21.3395 8.51804 20.9092 8.09076C20.482 7.66348 20.0517 7.39868 19.5461 7.20309C19.0557 7.01353 18.496 6.88113 17.6775 6.84502C16.8531 6.8059 16.5913 6.79688 14.5 6.79688Z" fill="white"/>
<path d="M14.4998 10.543C12.3153 10.543 10.543 12.3153 10.543 14.4998C10.543 16.6844 12.3153 18.4567 14.4998 18.4567C16.6844 18.4567 18.4567 16.6844 18.4567 14.4998C18.4567 12.3153 16.6844 10.543 14.4998 10.543ZM14.4998 17.0666C13.0826 17.0666 11.9331 15.9171 11.9331 14.4998C11.9331 13.0826 13.0826 11.9331 14.4998 11.9331C15.9171 11.9331 17.0666 13.0826 17.0666 14.4998C17.0666 15.9171 15.9171 17.0666 14.4998 17.0666Z" fill="white"/>
<path d="M19.539 10.3867C19.539 10.8982 19.1237 11.3104 18.6152 11.3104C18.1036 11.3104 17.6914 10.8952 17.6914 10.3867C17.6914 9.87513 18.1067 9.46289 18.6152 9.46289C19.1237 9.46289 19.539 9.87814 19.539 10.3867Z" fill="white"/>
</g>
<defs>
<clipPath id="clip0">
<rect width="15.4062" height="15.4062" fill="white" transform="translate(6.79688 6.79688)"/>
</clipPath>
</defs>
</svg>
