<svg width="29" height="29" viewBox="0 0 29 29" fill="none" xmlns="http://www.w3.org/2000/svg">
<circle cx="14.5" cy="14.5" r="14.5" fill="#FF9F41"/>
<g clip-path="url(#clip0)">
<path d="M12.0966 20.7593C17.9089 20.7593 21.0888 15.9427 21.0888 11.7671C21.0888 11.6316 21.0858 11.4932 21.0798 11.3578C21.6984 10.9105 22.2323 10.3564 22.6562 9.72151C22.0801 9.97784 21.4685 10.1452 20.8421 10.218C21.5016 9.82269 21.9954 9.20167 22.232 8.47006C21.6115 8.83775 20.933 9.09712 20.2256 9.23706C19.7489 8.73055 19.1186 8.39518 18.4322 8.2828C17.7458 8.17042 17.0414 8.28729 16.4281 8.61534C15.8148 8.9434 15.3266 9.46436 15.039 10.0977C14.7515 10.731 14.6806 11.4414 14.8373 12.1191C13.581 12.0561 12.352 11.7297 11.2299 11.1612C10.1079 10.5927 9.11781 9.79478 8.32392 8.81911C7.92043 9.51478 7.79696 10.338 7.97861 11.1214C8.16026 11.9049 8.63339 12.5897 9.30186 13.0369C8.80002 13.0209 8.30916 12.8858 7.86986 12.6427V12.6818C7.86941 13.4119 8.1218 14.1195 8.58412 14.6846C9.04645 15.2496 9.69017 15.637 10.4059 15.7811C9.94099 15.9083 9.45308 15.9268 8.97989 15.8353C9.18185 16.4631 9.57479 17.0123 10.1039 17.406C10.6329 17.7998 11.2718 18.0186 11.9312 18.0319C10.8117 18.9112 9.42881 19.3882 8.00527 19.3859C7.75281 19.3855 7.50061 19.3701 7.25 19.3396C8.69617 20.2674 10.3785 20.7602 12.0966 20.7593Z" fill="white"/>
</g>
<defs>
<clipPath id="clip0">
<rect width="15.4062" height="15.4062" fill="white" transform="translate(7.25 6.79688)"/>
</clipPath>
</defs>
</svg>
