<svg width="133" height="134" viewBox="0 0 133 134" fill="none" xmlns="http://www.w3.org/2000/svg">
<path d="M124.735 49.7467C121.02 48.3522 116.799 48.7856 113.446 50.9058L109.791 53.2158C105.553 49.221 99.8467 46.7689 93.5773 46.7689H84.5829C83.1477 46.7689 81.9846 47.932 81.9846 49.3671C81.9846 50.8023 83.1477 51.9654 84.5829 51.9654H93.5773C103.755 51.9654 112.036 60.2464 112.036 70.4243C112.036 72.2888 111.755 74.1349 111.201 75.9152L110.606 77.8243C109.333 81.9095 109.502 86.3489 111.079 90.3254C111.714 91.924 112.036 93.6078 112.036 95.3281V127.835H104.819L106.369 125.624C106.675 125.187 106.84 124.666 106.84 124.132V105.772C106.84 104.745 106.234 103.813 105.295 103.397C97.1226 99.7685 90.3681 93.3916 86.2778 85.4405L86.223 85.3339C85.5663 84.0581 83.9993 83.5547 82.7235 84.2124C81.4477 84.868 80.9453 86.4351 81.6009 87.7109L81.6568 87.8175C82.0546 88.5919 82.4758 89.3531 82.9183 90.1001H66.129C66.3006 89.3673 66.395 88.6061 66.395 87.8226V52.6881C66.395 49.4971 64.9162 46.6461 62.6102 44.7796L102.954 4.43533C103.968 3.42038 103.968 1.77616 102.954 0.761212C101.94 -0.253737 100.294 -0.253737 99.2793 0.761212L57.4472 42.5934C57.0463 42.5446 56.6383 42.5172 56.2231 42.5172C55.6903 42.5172 55.1767 42.5974 54.6896 42.7415C54.6733 42.7243 54.655 42.7081 54.6388 42.6918C53.2301 41.2323 52.1573 39.4409 51.5351 37.5105L45.7144 19.4393C44.7106 16.3204 41.8342 14.2255 38.5579 14.2255H29.0337C27.357 14.2255 25.7087 14.7949 24.3903 15.8302L13.443 24.4237H7.20109C4.89005 24.4237 2.77895 25.4905 1.40775 27.3519C0.0375728 29.2133 -0.355213 31.5456 0.329878 33.7532L2.10604 39.4683C3.46201 43.8346 7.44467 46.7689 12.018 46.7689H19.1196L23.5631 54.9301C24.8003 57.2036 25.6102 59.6354 25.9898 62.1748C24.7425 63.3156 23.9589 64.9557 23.9589 66.7756V69.8935C23.9589 71.8615 24.8754 73.6183 26.3045 74.7622C26.9764 79.0372 28.6713 83.1193 31.231 86.6148L34.7377 91.4003V121.534L32.1232 125.136C31.0199 126.658 30.8636 128.643 31.7182 130.316C32.5718 131.991 34.2698 133.031 36.1495 133.031H47.729C49.1642 133.031 50.3273 131.868 50.3273 130.433V114.61C50.3273 108.619 51.7817 102.738 54.5505 97.4565C55.1412 97.6666 55.7745 97.7823 56.4363 97.7823C58.9523 97.7823 61.2522 96.8414 63.0081 95.2966H86.5163C90.5944 100.374 95.7646 104.539 101.643 107.425V123.313L100.502 124.94C99.3981 126.516 99.2631 128.556 100.151 130.264C101.039 131.971 102.787 133.031 104.712 133.031H114.634C116.07 133.031 117.233 131.868 117.233 130.433V95.3281C117.233 92.9481 116.787 90.6198 115.91 88.4082C114.769 85.5328 114.648 82.3236 115.567 79.3701L116.162 77.4599C116.872 75.1803 117.233 72.8125 117.233 70.4243C117.233 69.523 117.18 68.6339 117.082 67.759C118.18 68.6603 118.882 70.0264 118.882 71.5549V83.437C118.882 91.1617 122.619 98.4775 128.878 103.004C129.33 103.331 129.864 103.497 130.402 103.497C130.805 103.497 131.211 103.403 131.583 103.212C132.452 102.769 133 101.876 133 100.899V61.6785C132.999 56.3977 129.678 51.6031 124.735 49.7467V49.7467ZM30.9905 60.5397C30.9661 60.4037 30.9387 60.2677 30.9123 60.1317L48.2487 42.7953C48.9926 44.063 49.8817 45.2454 50.9007 46.301C50.9403 46.3426 50.983 46.3832 51.0236 46.4248C50.8845 46.9049 50.8053 47.4103 50.8053 47.935V60.5397H30.9905ZM40.7685 21.0328L42.7781 27.2717L38.0403 32.9716C37.614 33.4832 36.9888 33.7775 36.322 33.7775C35.0909 33.7775 34.0881 32.7758 34.0881 31.5436V19.4221H38.5579C39.5699 19.4221 40.4579 20.0696 40.7685 21.0328ZM22.946 42.9283C22.4903 42.092 21.6154 41.5723 20.6634 41.5723H12.018C9.7344 41.5723 7.7451 40.1067 7.06813 37.9266L5.29197 32.2114C5.10217 31.5984 5.21077 30.9499 5.59138 30.4333C5.97198 29.9166 6.55862 29.6203 7.20109 29.6203H14.3402C14.9228 29.6203 15.4871 29.4244 15.9449 29.0651L27.5985 19.9174C27.969 19.6271 28.4227 19.4566 28.8906 19.4282V31.5426C28.8906 35.641 32.2247 38.9741 36.322 38.9741C38.5376 38.9741 40.6203 37.9967 42.0362 36.2926L44.6649 33.131L46.1021 37.5927L29.1534 54.5414C28.8418 53.8319 28.5008 53.1326 28.1263 52.4455L22.946 42.9283ZM45.1308 114.61V127.835H36.5859L39.4389 123.903C39.7607 123.459 39.9342 122.925 39.9342 122.377V90.5497C39.9342 89.9976 39.7586 89.4597 39.4318 89.0141L35.4238 83.5435C33.7907 81.3157 32.5951 78.7915 31.8948 76.1293H50.8053V92.1513C50.8053 92.5441 50.8459 92.9278 50.9231 93.2982C47.1343 99.7604 45.1308 107.108 45.1308 114.61ZM56.0019 92.1513V73.5311C56.0019 72.0959 54.8388 70.9328 53.4036 70.9328H30.1948C29.6213 70.9328 29.1555 70.4669 29.1555 69.8935V66.7756C29.1555 66.2021 29.6213 65.7362 30.1948 65.7362H53.4036C54.8388 65.7362 56.0019 64.5731 56.0019 63.138V47.9401C56.0861 47.8711 56.1663 47.795 56.2434 47.7148C58.9767 47.725 61.1984 49.9517 61.1984 52.6881V87.8226C61.1984 90.4482 59.062 92.5857 56.4353 92.5857C56.1968 92.5847 56.0019 92.3898 56.0019 92.1513V92.1513ZM127.802 94.712C125.417 91.4845 124.079 87.5343 124.079 83.437V71.5549C124.079 66.5056 120.356 62.3088 115.51 61.5658C114.887 60.0292 114.109 58.5717 113.192 57.2137L116.223 55.2985C118.209 54.043 120.708 53.7872 122.908 54.6124C125.835 55.7116 127.802 58.5514 127.802 61.6785V94.712Z" fill="#294F6B"/>
</svg>
