<svg width="29" height="29" viewBox="0 0 29 29" fill="none" xmlns="http://www.w3.org/2000/svg">
<circle cx="14.5" cy="14.5" r="14.5" fill="#FF9F41"/>
<g clip-path="url(#clip0)">
<path d="M22.4938 11.6904C22.4938 11.6904 22.3345 10.5657 21.8438 10.0719C21.2225 9.42194 20.528 9.41875 20.2094 9.38052C17.9282 9.21484 14.5032 9.21484 14.5032 9.21484H14.4968C14.4968 9.21484 11.0718 9.21484 8.79063 9.38052C8.47202 9.41875 7.77747 9.42194 7.15619 10.0719C6.66554 10.5657 6.50942 11.6904 6.50942 11.6904C6.50942 11.6904 6.34375 13.0126 6.34375 14.3316V15.5678C6.34375 16.8868 6.50624 18.209 6.50624 18.209C6.50624 18.209 6.66554 19.3337 7.153 19.8275C7.77428 20.4775 8.5899 20.4552 8.95311 20.5253C10.2594 20.6495 14.5 20.6878 14.5 20.6878C14.5 20.6878 17.9282 20.6814 20.2094 20.5189C20.528 20.4807 21.2225 20.4775 21.8438 19.8275C22.3345 19.3337 22.4938 18.209 22.4938 18.209C22.4938 18.209 22.6562 16.89 22.6562 15.5678V14.3316C22.6562 13.0126 22.4938 11.6904 22.4938 11.6904ZM12.8146 17.0684V12.4837L17.2209 14.784L12.8146 17.0684Z" fill="white"/>
</g>
<defs>
<clipPath id="clip0">
<rect width="16.3125" height="16.3125" fill="white" transform="translate(6.34375 6.79688)"/>
</clipPath>
</defs>
</svg>
